<svg xmlns="http://www.w3.org/2000/svg" viewBox="0 0 32 32" shape-rendering="crispEdges">
  <rect width="32" height="32" fill="#3a7264"/>
  <g fill="#f7fbf9">
    <rect x="0.6" y="9" width="2.8" height="2.8"/>
    <rect x="3.4" y="9" width="2.8" height="2.8"/>
    <rect x="6.2" y="9" width="2.8" height="2.8"/>
    <rect x="11.8" y="9" width="2.8" height="2.8"/>
    <rect x="14.6" y="9" width="2.8" height="2.8"/>
    <rect x="17.4" y="9" width="2.8" height="2.8"/>
    <rect x="23" y="9" width="2.8" height="2.8"/>
    <rect x="0.6" y="11.8" width="2.8" height="2.8"/>
    <rect x="11.8" y="11.8" width="2.8" height="2.8"/>
    <rect x="17.4" y="11.8" width="2.8" height="2.8"/>
    <rect x="23" y="11.8" width="2.8" height="2.8"/>
    <rect x="0.6" y="14.6" width="2.8" height="2.8"/>
    <rect x="3.4" y="14.6" width="2.8" height="2.8"/>
    <rect x="6.2" y="14.6" width="2.8" height="2.8"/>
    <rect x="11.8" y="14.6" width="2.8" height="2.8"/>
    <rect x="14.6" y="14.6" width="2.8" height="2.8"/>
    <rect x="17.4" y="14.6" width="2.8" height="2.8"/>
    <rect x="23" y="14.6" width="2.8" height="2.8"/>
    <rect x="6.2" y="17.4" width="2.8" height="2.8"/>
    <rect x="11.8" y="17.4" width="2.8" height="2.8"/>
    <rect x="17.4" y="17.4" width="2.8" height="2.8"/>
    <rect x="23" y="17.4" width="2.8" height="2.8"/>
    <rect x="28.6" y="17.4" width="2.8" height="2.8"/>
    <rect x="0.6" y="20.2" width="2.8" height="2.8"/>
    <rect x="3.4" y="20.2" width="2.8" height="2.8"/>
    <rect x="6.2" y="20.2" width="2.8" height="2.8"/>
    <rect x="11.8" y="20.2" width="2.8" height="2.8"/>
    <rect x="17.4" y="20.2" width="2.8" height="2.8"/>
    <rect x="23" y="20.2" width="2.8" height="2.8"/>
    <rect x="28.6" y="20.2" width="2.8" height="2.8"/>
  </g>
</svg>
